<?xml version="1.0" encoding="UTF-8" standalone="no"?>
<svg
   width="900"
   height="300"
   viewBox="0 0 900 300"
   version="1.1"
   id="svg11"
   sodipodi:docname="base_code.svg"
   inkscape:version="1.4.2 (f4327f4, 2025-05-13)"
   inkscape:export-filename="base_code.png"
   inkscape:export-xdpi="96"
   inkscape:export-ydpi="96"
   xmlns:inkscape="http://www.inkscape.org/namespaces/inkscape"
   xmlns:sodipodi="http://sodipodi.sourceforge.net/DTD/sodipodi-0.dtd"
   xmlns="http://www.w3.org/2000/svg"
   xmlns:svg="http://www.w3.org/2000/svg">
  <sodipodi:namedview
     id="namedview11"
     pagecolor="#ffffff"
     bordercolor="#000000"
     borderopacity="0.25"
     inkscape:showpageshadow="2"
     inkscape:pageopacity="0.0"
     inkscape:pagecheckerboard="0"
     inkscape:deskcolor="#d1d1d1"
     inkscape:zoom="0.98666667"
     inkscape:cx="353.20946"
     inkscape:cy="129.22297"
     inkscape:window-width="1920"
     inkscape:window-height="1009"
     inkscape:window-x="1358"
     inkscape:window-y="-8"
     inkscape:window-maximized="1"
     inkscape:current-layer="svg11" />
  <defs
     id="defs6">
    <linearGradient
       id="faceLeft"
       x1="0"
       y1="0"
       x2="0"
       y2="1"
       inkscape:swatch="gradient">
      <stop
         offset="0%"
         stop-color="#0f2f4a"
         id="stop1" />
      <stop
         offset="100%"
         stop-color="#0a2236"
         id="stop2" />
    </linearGradient>
    <linearGradient
       id="faceRight"
       x1="0"
       y1="0"
       x2="1"
       y2="1"
       inkscape:swatch="gradient">
      <stop
         offset="0%"
         stop-color="#1f3f5c"
         id="stop3" />
      <stop
         offset="100%"
         stop-color="#0f2f4a"
         id="stop4" />
    </linearGradient>
    <linearGradient
       id="faceTop"
       x1="0"
       y1="0"
       x2="1"
       y2="1"
       inkscape:swatch="gradient">
      <stop
         offset="0%"
         stop-color="#d9d9d9"
         id="stop5" />
      <stop
         offset="100%"
         stop-color="#bfbfbf"
         id="stop6" />
    </linearGradient>
    <filter
       id="shadow"
       x="-0.0069877124"
       y="-0.0034938562"
       width="1.0139754"
       height="1.0085502">
      <feDropShadow
         dx="0"
         dy="6"
         stdDeviation="6"
         flood-color="#000000"
         flood-opacity="0.2" />
    </filter>
  </defs>
  <!-- Cubo centralizado exatamente no meio vertical (150 - 80 = 70) -->
  <g
     transform="matrix(0.80523766,0,0,0.80523766,87.534566,55.347652)"
     filter="url(#shadow)"
     id="g10"
     style="fill:#00ff00;stroke:#00ff00">
    <path
       id="polygon6"
       d="M 100,0 180,40 100,80 20,40 Z"
       style="fill:#ffff00" />
    <path
       id="polygon7"
       d="m 20,40 80,40 v 80 L 20,120 Z" />
    <path
       id="polygon8"
       d="m 100,80 80,-40 v 80 l -80,40 z" />
    <path
       id="rect8"
       d="m 84,30 h 12 c 2.216,0 4,1.784 4,4 0,2.216 -1.784,4 -4,4 H 84 c -2.216,0 -4,-1.784 -4,-4 0,-2.216 1.784,-4 4,-4 z" />
    <path
       id="rect9"
       d="m 54,95 h 12 c 2.216,0 4,1.784 4,4 0,2.216 -1.784,4 -4,4 H 54 c -2.216,0 -4,-1.784 -4,-4 0,-2.216 1.784,-4 4,-4 z" />
    <path
       id="rect10"
       style="opacity:1"
       d="m 134,95 h 12 c 2.216,0 4,1.784 4,4 0,2.216 -1.784,4 -4,4 h -12 c -2.216,0 -4,-1.784 -4,-4 0,-2.216 1.784,-4 4,-4 z" />
  </g>
  <!-- Texto centralizado verticalmente -->
  <text
     x="264.44336"
     y="171.24829"
     font-family="'Segoe UI', Arial, Helvetica, sans-serif"
     font-size="130.608px"
     dominant-baseline="middle"
     id="text11"
     style="font-size:123.338px;font-family:'Segoe UI', Arial, Helvetica, sans-serif;dominant-baseline:middle;stroke-width:1.12126"><tspan
       fill="#0f2f4a"
       font-weight="600"
       id="tspan10"
       style="font-style:normal;font-variant:normal;font-weight:bold;font-stretch:normal;font-size:123.338px;font-family:'Segoe UI', Arial, Helvetica, sans-serif;-inkscape-font-specification:'Segoe UI, Arial, Helvetica, sans-serif, Bold';font-variant-ligatures:normal;font-variant-caps:normal;font-variant-numeric:normal;font-variant-east-asian:normal;fill:#123959;fill-opacity:1;stroke-width:1.12126">base</tspan><tspan
       style="fill:#575757;fill-opacity:1"
       id="tspan17">_code</tspan></text>
  <rect
     style="opacity:1;fill:#ff8080;fill-opacity:1;stroke:none;stroke-width:1.23653;stroke-linejoin:miter;stroke-miterlimit:0;stroke-dasharray:none"
     id="rect15"
     width="109.65742"
     height="109.65742"
     x="123.14584"
     y="-44.25275"
     rx="2.4730361"
     transform="matrix(0.87419294,0.48557873,-0.87419294,0.48557873,0,0)" />
  <rect
     style="opacity:1;fill:#008080;fill-opacity:1;stroke:none;stroke-width:1.28058;stroke-linejoin:miter;stroke-miterlimit:0;stroke-dasharray:none"
     id="rect16"
     width="107.91587"
     height="119.5083"
     x="170.42897"
     y="232.13255"
     rx="2.4337599"
     transform="matrix(0.87741292,-0.47973594,-0.00108723,0.99999941,0,0)" />
  <rect
     style="opacity:1;fill:#b3b3b3;fill-opacity:1;stroke:none;stroke-width:1.28058;stroke-linejoin:miter;stroke-miterlimit:0;stroke-dasharray:none"
     id="rect17"
     width="107.91587"
     height="119.5083"
     x="-163.32552"
     y="72.029289"
     rx="2.4337599"
     transform="matrix(-0.87741292,-0.47973594,0.00108723,0.99999941,0,0)" />
</svg>
